<svg width="300" height="300" viewBox="0 0 300 300" fill="none" xmlns="http://www.w3.org/2000/svg">
<path d="M256.689 210.24C247.579 208.201 239.795 216.175 235.764 223.354C231.453 231.016 228.469 242.261 218.734 244.586C216.906 245.094 214.962 244.989 213.2 244.287C210.807 243.206 209.331 240.799 207.489 239.038C204.356 236.08 200.24 234.385 195.932 234.279C187.026 233.974 178.677 239.038 171.961 244.382C164.931 249.957 155.882 258.21 146.127 256.034C139.525 254.573 134.698 248.896 130.354 244.124C126.01 239.351 121.394 233.926 115.126 231.56C111.122 230.18 106.749 230.321 102.843 231.957C98.9358 233.594 95.7677 236.61 93.9421 240.432C91.7963 244.55 90.8539 249.189 91.2227 253.818L83.7716 241.778C78.1494 232.668 72.7922 223.314 66.7281 214.483C61.8947 206.578 55.0208 200.122 46.8291 195.794C42.9111 193.8 38.5806 192.75 34.1842 192.73C29.7879 192.71 25.448 193.72 21.5119 195.678C21.0759 195.922 20.7128 196.278 20.4601 196.708C20.2074 197.139 20.0741 197.63 20.0741 198.129C20.0741 198.629 20.2074 199.119 20.4601 199.55C20.7128 199.981 21.0759 200.336 21.5119 200.58C21.0799 201.467 20.7908 202.417 20.6553 203.394H20.5601C19.8188 203.601 19.1889 204.092 18.8071 204.76C18.4252 205.428 18.3223 206.22 18.5206 206.964C25.2199 223.393 36.1649 237.747 50.2351 248.556C50.9557 249.551 51.8247 250.429 52.8117 251.16L77.3268 269.55C77.8099 269.896 78.3444 270.164 78.9108 270.345C79.5774 271.867 80.6719 273.162 82.0611 274.073C83.4503 274.984 85.0744 275.472 86.7357 275.478C87.5107 275.464 88.2799 275.341 89.02 275.111C89.2142 277.272 90.2005 279.285 91.7892 280.764C93.3779 282.242 95.457 283.081 97.6268 283.119C98.4091 283.101 99.185 282.973 99.9314 282.738C100.721 282.992 101.543 283.124 102.372 283.133C103.888 283.11 105.371 282.686 106.669 281.902C107.956 282.664 109.422 283.07 110.918 283.078H113.222C113.958 283.85 114.855 284.45 115.849 284.836C116.843 285.221 117.91 285.382 118.974 285.308C119.314 285.308 119.654 285.254 120.014 285.227C120.864 286.335 121.94 287.251 123.171 287.912C124.401 288.573 125.759 288.964 127.152 289.061C139.751 290.535 152.5 290.088 164.965 287.735C166.23 288.243 167.588 288.474 168.95 288.413C170.311 288.352 171.644 288 172.858 287.382C174.109 286.79 175.373 286.219 176.638 285.662C177.401 286.231 178.27 286.643 179.194 286.872L181.505 287.185C183.051 287.185 184.569 286.774 185.904 285.995L199.943 279.04C200.195 279.15 200.454 279.243 200.718 279.319C202.983 279.91 205.388 279.598 207.428 278.449L215.98 273.37L217.741 272.011C218.306 271.464 218.767 270.819 219.101 270.107C219.373 270.039 219.645 269.957 219.91 269.862C228.473 266.537 235.987 260.972 241.665 253.75L241.896 253.458C242.276 253.118 242.671 252.819 243.045 252.486C243.844 251.724 244.466 250.795 244.867 249.766C245.361 249.294 245.77 248.739 246.077 248.128C246.185 247.89 246.315 247.659 246.43 247.448C249.829 242.689 252.929 237.801 256.145 232.933C256.39 232.689 256.641 232.471 256.893 232.254C257.144 232.036 257.573 231.873 257.947 231.682L258.334 231.438L258.463 231.363C259.568 230.681 260.516 229.773 261.244 228.698C261.899 229.083 262.675 229.206 263.418 229.043C264.16 228.881 264.814 228.444 265.248 227.821C270.075 221.002 263.963 211.879 256.689 210.24Z" fill="url(#paint0_linear_167_20)"/>
<path d="M278.41 210.159L270.986 206.678C257.015 236.404 232.567 259.929 202.325 272.745C172.084 285.561 138.177 286.766 107.101 276.131C76.026 265.495 49.9684 243.766 33.922 215.107C17.8756 186.449 12.9691 152.877 20.1427 120.825C27.3163 88.7727 46.0654 60.4951 72.7972 41.4108C99.5289 22.3266 132.363 13.778 165.007 17.4033C197.652 21.0286 227.81 36.5727 249.704 61.057C271.597 85.5413 283.685 117.243 283.651 150.088C283.646 169.654 279.321 188.977 270.986 206.678L278.41 210.159L285.834 213.633C301.132 180.976 304.153 143.901 294.344 109.198C284.535 74.4955 262.551 44.4883 232.42 24.6731C202.289 4.85787 166.028 -3.43891 130.279 1.30244C94.529 6.04379 61.6842 23.5059 37.7603 50.4902C13.8363 77.4745 0.434793 112.175 0.0103967 148.235C-0.413999 184.295 12.1671 219.301 35.4494 246.841C58.7316 274.381 91.1564 292.611 126.784 298.192C162.413 303.774 198.859 296.333 229.448 277.232C254.002 261.936 273.59 239.843 285.834 213.633L278.41 210.159Z" fill="url(#paint1_linear_167_20)"/>
<path d="M242.99 116.559C240.759 114.989 238.203 113.941 235.512 113.493C231.946 112.542 228.262 112.112 224.573 112.215C224.321 112.236 224.073 112.295 223.839 112.391C223.269 112.433 222.732 112.676 222.325 113.077C221.917 113.478 221.666 114.011 221.616 114.58C220.279 126.717 216.691 138.498 211.038 149.32C204.27 152.409 197.08 154.472 189.704 155.439C180.169 156.872 170.435 156.157 161.211 153.347C151.987 150.537 143.508 145.703 136.391 139.197C129.171 132.375 123.318 124.24 119.144 115.226C123.533 106.018 126.011 96.0159 126.428 85.8236C126.845 75.6313 125.193 65.4601 121.571 55.9239C121.413 55.5071 121.142 55.1423 120.789 54.8702C121.741 53.0482 122.781 51.2806 123.882 49.5539C132.808 44.8427 142.515 41.7906 152.531 40.546C155.495 40.1857 155.365 35.5016 152.367 35.8687C144.49 36.837 136.78 38.8702 129.45 41.9125C134.346 35.9946 140.221 30.9609 146.82 27.0308C147.088 26.875 147.322 26.668 147.51 26.4216C147.698 26.1751 147.835 25.8941 147.915 25.5946C147.994 25.295 148.013 24.9828 147.972 24.6758C147.93 24.3687 147.829 24.0728 147.673 23.805C147.517 23.5371 147.31 23.3026 147.064 23.1148C146.817 22.927 146.536 22.7895 146.237 22.7103C145.632 22.5503 144.988 22.6371 144.447 22.9518C134.759 28.7514 126.541 36.7108 120.435 46.2091C93.1533 61.1315 73.6283 89.7187 75.2531 121.977C76.2845 142.538 85.0226 161.956 99.7273 176.364C106.933 183.239 115.533 188.484 124.944 191.743C134.355 195.002 144.357 196.198 154.271 195.25C164.552 194.463 174.543 191.47 183.564 186.476C192.586 181.482 200.425 174.604 206.551 166.309C206.721 166.159 206.872 165.988 206.999 165.8C207.715 164.671 208.422 163.538 209.12 162.4L209.222 162.237V162.183C211.094 159.11 212.855 155.971 214.505 152.767C215.327 152.373 216.164 152.012 216.966 151.598C219.016 150.518 221.01 149.335 222.942 148.056C223.443 147.852 223.904 147.559 224.301 147.192C231.2 142.432 237.132 136.404 241.78 129.428L241.855 129.326L242.025 129.068C242.154 128.871 242.297 128.68 242.426 128.49L242.46 128.422C243.657 126.77 244.576 124.933 245.179 122.983C245.506 121.817 245.472 120.578 245.081 119.431C244.69 118.285 243.961 117.283 242.99 116.559ZM112.379 74.5108C111.372 74.6513 110.415 75.0364 109.592 75.6325C109.056 74.9536 108.376 74.4031 107.6 74.0213C107.472 73.2174 107.21 72.4407 106.825 71.7234C107.255 71.189 107.574 70.5742 107.763 69.915C108.118 69.7166 108.445 69.472 108.735 69.1876C109.56 69.7248 110.525 70.0041 111.509 69.9898C111.803 69.9809 112.096 69.9514 112.386 69.9014C112.206 71.0593 112.381 72.2447 112.889 73.3006C112.679 73.6929 112.508 74.1051 112.379 74.5312V74.5108ZM129.967 135.377C130.048 134.778 130.13 134.173 130.171 133.562C130.138 134.169 130.075 134.775 129.98 135.377H129.967ZM165.019 188.696L165.108 188.622V188.669L165.019 188.696Z" fill="url(#paint2_linear_167_20)"/>
<path d="M120.211 156.975C126.815 150.867 131.333 142.839 133.128 134.024C131.394 132.154 129.729 130.237 128.138 128.245C127.764 133.106 126.436 137.844 124.228 142.191C122.021 146.537 118.978 150.405 115.274 153.574C111.569 156.742 107.277 159.149 102.641 160.657C98.0055 162.165 93.118 162.743 88.2585 162.36H88.143C87.9271 162.368 87.7127 162.399 87.5039 162.455C88.8636 164.454 90.3048 166.391 91.8073 168.281C102.328 168.055 112.413 164.041 120.211 156.975Z" fill="white"/>
<path d="M148.18 180.036C154.697 171.644 157.805 161.102 156.882 150.517C154.765 149.339 152.707 148.076 150.709 146.73C150.574 147.071 150.53 147.441 150.58 147.804C152.287 157.089 150.238 166.672 144.884 174.448C139.531 182.224 131.309 187.556 122.026 189.275C121.272 189.411 120.517 189.526 119.756 189.614C119.448 189.666 119.15 189.765 118.872 189.907C121.747 191.423 124.712 192.762 127.751 193.918C135.811 191.47 142.936 186.629 148.18 180.036Z" fill="white"/>
<path d="M178.895 183.795C185.691 175.317 189.126 164.631 188.542 153.78C186.375 153.572 184.216 153.293 182.063 152.944C182.894 162.446 180.08 171.908 174.19 179.41C168.527 186.515 160.804 193.911 151.456 195.393L151.028 195.529C156.656 195.722 162.29 195.431 167.868 194.659C171.991 191.522 175.697 187.871 178.895 183.795Z" fill="white"/>
<path d="M200.201 152.217C200.606 163.602 198.275 174.918 193.402 185.216L193.348 185.461C196.808 182.569 200.013 179.384 202.927 175.943C205.041 168.155 205.958 160.09 205.646 152.026C205.619 151.631 205.544 151.241 205.422 150.864C203.702 151.306 201.968 151.693 200.228 151.992L200.201 152.217Z" fill="white"/>
<path d="M117.254 70.8128C117.434 71.9849 117.262 73.1839 116.76 74.2584C116.259 75.3329 115.45 76.2345 114.436 76.8493C113.422 77.4641 112.248 77.7644 111.064 77.7123C109.879 77.6602 108.736 77.2581 107.78 76.5567C106.824 75.8553 106.097 74.8861 105.692 73.7718C105.287 72.6574 105.221 71.4479 105.503 70.2961C105.785 69.1443 106.402 68.102 107.276 67.3009C108.151 66.4999 109.243 65.976 110.415 65.7956C111.193 65.6758 111.987 65.7106 112.752 65.8979C113.516 66.0853 114.237 66.4217 114.871 66.8876C115.506 67.3536 116.042 67.9402 116.45 68.6137C116.858 69.2872 117.128 70.0345 117.247 70.8128H117.254Z" fill="white"/>
<path d="M117.233 70.8124L116.281 70.9551C116.494 72.2595 116.184 73.5949 115.42 74.6729C114.655 75.7509 113.497 76.4848 112.196 76.7161C110.895 76.9474 109.555 76.6575 108.466 75.909C107.377 75.1604 106.626 74.0135 106.376 72.7159L106.335 72.478C106.3 72.2234 106.282 71.9667 106.281 71.7097C106.288 70.4457 106.77 69.2306 107.632 68.3061C108.494 67.3816 109.673 66.8155 110.933 66.7203C112.194 66.6252 113.444 67.0081 114.435 67.7928C115.426 68.5775 116.085 69.7064 116.281 70.9551L117.24 70.8124L118.199 70.6696C117.88 68.8716 116.864 67.2723 115.372 66.2193C113.88 65.1663 112.033 64.7449 110.232 65.0467C108.431 65.3485 106.823 66.3491 105.756 67.8309C104.689 69.3127 104.25 71.1558 104.535 72.9595C104.819 74.7631 105.805 76.3813 107.276 77.4623C108.748 78.5432 110.587 78.9994 112.393 78.7317C114.199 78.4639 115.827 77.4939 116.922 76.0325C118.016 74.5711 118.49 72.7366 118.239 70.9279L118.199 70.6696L117.233 70.8124Z" fill="white"/>
<path d="M107.342 69.616L108.701 68.603L112.57 69.616L113.929 73.4435L111.89 75.2043L110.217 75.9929L108.728 75.313L107.491 74.3409L106.689 72.0566L107.342 69.616Z" fill="white"/>
<defs>
<linearGradient id="paint0_linear_167_20" x1="142.696" y1="192.73" x2="142.696" y2="289.91" gradientUnits="userSpaceOnUse">
<stop stop-color="#1A6DFF"/>
<stop offset="1" stop-color="#C822FF"/>
</linearGradient>
<linearGradient id="paint1_linear_167_20" x1="150" y1="0" x2="150" y2="300" gradientUnits="userSpaceOnUse">
<stop stop-color="#1A6DFF"/>
<stop offset="1" stop-color="#C822FF"/>
</linearGradient>
<linearGradient id="paint2_linear_167_20" x1="160.28" y1="22.6318" x2="160.28" y2="195.565" gradientUnits="userSpaceOnUse">
<stop stop-color="#8AB4FF"/>
<stop offset="1" stop-color="#E492FF"/>
</linearGradient>
</defs>
</svg>
